<svg width="22" height="22" viewBox="0 0 22 22" fill="none" xmlns="http://www.w3.org/2000/svg">
<path d="M20.4806 10.6821C20.6262 10.2378 20.6998 9.77453 20.6998 9.30124C20.6998 7.99829 20.1447 6.79132 19.167 5.94728C19.21 5.73257 19.2317 5.51429 19.2317 5.29529C19.2317 3.46242 17.7405 1.97127 15.9076 1.97127C15.8075 1.97127 15.7065 1.97597 15.6051 1.98538C14.7591 0.761497 13.3513 0.00764391 11.8655 0C11.8647 0 11.8641 0 11.8633 0C11.7498 0 11.6407 0.0449137 11.5602 0.125062C11.4792 0.205707 11.4336 0.315345 11.4336 0.429687V21.5703C11.4336 21.6847 11.4792 21.7943 11.5602 21.8749C11.6407 21.955 11.7498 22 11.8633 22C11.8641 22 11.8647 22 11.8655 22C13.9071 21.9895 15.7123 20.602 16.228 18.7113C16.3658 18.7228 16.504 18.7286 16.6416 18.7286C19.365 18.7286 21.5806 16.5129 21.5806 13.7896C21.5807 12.6533 21.1918 11.5597 20.4806 10.6821ZM16.6417 17.8692C16.4156 17.8692 16.1877 17.8502 15.964 17.8129C15.7302 17.7737 15.5089 17.9314 15.4695 18.1651C15.208 19.7136 13.8796 20.9184 12.293 21.1131V0.887553C13.4113 1.02813 14.4318 1.68496 15.0242 2.66904C15.1162 2.82183 15.2929 2.90193 15.4684 2.87036C15.6156 2.8439 15.7634 2.83051 15.9076 2.83051C17.2666 2.83051 18.3723 3.93612 18.3723 5.29515C18.3723 5.52944 18.3388 5.76283 18.2726 5.98876C18.2226 6.15973 18.2832 6.34386 18.4251 6.4516C19.3246 7.13494 19.8405 8.17352 19.8405 9.30115C19.8405 9.7544 19.7569 10.1959 19.5921 10.6135C19.5322 10.7653 19.5634 10.9378 19.6726 11.059C20.3489 11.8091 20.7213 12.7789 20.7213 13.7895C20.7213 16.0391 18.8912 17.8692 16.6417 17.8692Z" fill="black"/>
<path d="M10.1363 0C10.1356 0 10.1349 0 10.1341 0C8.64832 0.00764391 7.24058 0.761497 6.39445 1.98538C6.29314 1.97597 6.19205 1.97127 6.09195 1.97127C4.25909 1.97127 2.76793 3.46242 2.76793 5.29529C2.76793 5.51429 2.78964 5.73257 2.83261 5.94728C1.85492 6.79132 1.2998 7.99825 1.2998 9.30124C1.2998 9.77453 1.37344 10.2378 1.51904 10.6821C0.80779 11.5598 0.418945 12.6533 0.418945 13.7896C0.418945 16.513 2.63455 18.7286 5.35796 18.7286C5.49555 18.7286 5.63372 18.7228 5.77154 18.7113C6.28721 20.602 8.09249 21.9895 10.1341 22C10.1349 22 10.1355 22 10.1363 22C10.2499 22 10.3588 21.955 10.4394 21.8749C10.5204 21.7943 10.566 21.6847 10.566 21.5703V0.429687C10.566 0.315345 10.5204 0.205707 10.4394 0.125062C10.3588 0.0449589 10.2498 0 10.1363 0ZM9.70662 21.1131C8.11994 20.9184 6.79166 19.7136 6.53014 18.1652C6.49473 17.9554 6.31286 17.807 6.10697 17.807C6.08349 17.807 6.05966 17.8089 6.03569 17.813C5.81198 17.8503 5.58402 17.8693 5.35796 17.8693C3.10843 17.8693 1.27832 16.0391 1.27832 13.7897C1.27832 12.779 1.65079 11.8093 2.32703 11.0591C2.43626 10.9379 2.46742 10.7654 2.40754 10.6136C2.24272 10.1961 2.15918 9.75454 2.15918 9.30129C2.15918 8.17365 2.67508 7.13503 3.57453 6.45173C3.71637 6.34395 3.77702 6.15986 3.727 5.98889C3.66087 5.76292 3.62735 5.52958 3.62735 5.29529C3.62735 3.9363 4.73296 2.83065 6.092 2.83065C6.23628 2.83065 6.38405 2.84403 6.53127 2.87049C6.70681 2.90202 6.88344 2.82192 6.97539 2.66917C7.56786 1.68492 8.5883 1.02813 9.70662 0.887553V21.1131V21.1131Z" fill="black"/>
<path d="M2.87207 13.7264C2.87207 13.3902 2.93535 13.0634 3.06018 12.7551C3.1492 12.5351 3.04304 12.2846 2.82309 12.1956C2.60318 12.1066 2.35269 12.2126 2.26359 12.4326C2.09714 12.8439 2.0127 13.2792 2.0127 13.7264C2.0127 14.4331 2.22501 15.1126 2.62656 15.6912C2.71006 15.8115 2.84385 15.876 2.97995 15.876C3.06448 15.876 3.14988 15.8511 3.22455 15.7993C3.41949 15.664 3.46789 15.3963 3.33261 15.2013C3.03133 14.7672 2.87207 14.2572 2.87207 13.7264Z" fill="black"/>
<path d="M5.4624 16.317C5.09934 16.317 4.7484 16.2435 4.41939 16.0985C4.20219 16.003 3.94859 16.1014 3.85297 16.3186C3.75731 16.5357 3.85582 16.7893 4.07297 16.885C4.51189 17.0783 4.97934 17.1763 5.4624 17.1763C5.69968 17.1763 5.89209 16.984 5.89209 16.7466C5.89209 16.5093 5.69968 16.317 5.4624 16.317Z" fill="black"/>
<path d="M17.984 8.28945C18.0653 8.42085 18.2059 8.49313 18.3498 8.49313C18.4269 8.49313 18.5051 8.47232 18.5755 8.42872C18.7773 8.30384 18.8397 8.03901 18.7148 7.83724C18.3601 7.26395 17.8145 6.82915 17.1784 6.61295C16.8777 6.51077 16.5631 6.45898 16.2432 6.45898C16.0059 6.45898 15.8135 6.65135 15.8135 6.88867C15.8135 7.126 16.0059 7.31836 16.2432 7.31836C16.4689 7.31836 16.6904 7.35482 16.9018 7.42664C17.3496 7.57884 17.7339 7.88528 17.984 8.28945Z" fill="black"/>
<path d="M18.7185 8.93408C18.4812 8.93408 18.2888 9.12645 18.2888 9.36377C18.2888 10.0776 17.9259 10.7284 17.3179 11.1045C17.1161 11.2293 17.0537 11.4942 17.1786 11.696C17.2599 11.8274 17.4005 11.8996 17.5444 11.8996C17.6215 11.8996 17.6997 11.8789 17.7701 11.8353C18.633 11.3014 19.1482 10.3775 19.1482 9.36377C19.1482 9.12645 18.9558 8.93408 18.7185 8.93408Z" fill="black"/>
<path d="M8.44141 8.70297C8.67868 8.70297 8.87109 8.5106 8.87109 8.27328V3.11377C8.87109 2.87645 8.67868 2.68408 8.44141 2.68408C8.20413 2.68408 8.01172 2.87645 8.01172 3.11377V8.27328C8.01172 8.5106 8.20417 8.70297 8.44141 8.70297Z" fill="black"/>
<path d="M8.44141 11.5971C8.67868 11.5971 8.87109 11.4047 8.87109 11.1674V10.2026C8.87109 9.96531 8.67868 9.77295 8.44141 9.77295C8.20413 9.77295 8.01172 9.96531 8.01172 10.2026V11.1674C8.01172 11.4047 8.20417 11.5971 8.44141 11.5971Z" fill="black"/>
</svg>
