<svg width="33" height="22" viewBox="0 0 33 22" fill="none" xmlns="http://www.w3.org/2000/svg">
<path fill-rule="evenodd" clip-rule="evenodd" d="M6.4707 16.5801V11.4034V6.22731H8.41175C10.6928 6.22731 11.3719 6.46973 11.9866 7.47312C12.3427 8.05539 12.3746 8.28155 12.4233 10.9992C12.4883 14.073 12.3908 14.7527 11.776 15.5287C11.1614 16.3215 10.3205 16.5801 8.29804 16.5801H6.4707ZM10.5953 11.3072C10.5953 8.68642 10.5791 8.62139 10.2073 8.31407C9.94811 8.1035 9.57636 8.00661 9.04272 8.00661H8.24997L8.28244 11.3553L8.33063 14.7191L9.10718 14.7035C9.6732 14.7035 9.96428 14.6059 10.2398 14.3484C10.5791 14.0079 10.5953 13.8456 10.5953 11.3072ZM13.5879 11.4359C13.5879 7.27882 13.604 7.06838 13.9277 6.64778C14.2513 6.22731 14.2676 6.22731 16.516 6.22731H18.7645V8.00661H15.3672V10.4338H17.4701V12.1963L16.4674 12.2456L15.4484 12.2937V14.7191L17.1146 14.7684L18.7645 14.8176V16.5801H16.5804C14.4612 16.5801 14.3645 16.5645 13.9921 16.1759L13.5879 15.7874V11.4359ZM21.7734 13.184C21.4329 11.8895 20.8832 9.80223 20.5438 8.52463L19.9291 6.22731H20.9638C21.5303 6.22731 21.9996 6.25982 21.9996 6.29234C21.9996 6.37284 23.6008 12.5367 23.7308 12.9409C23.7957 13.1503 24.1674 11.9857 24.734 9.78593L25.6387 6.3086L26.6589 6.25982C27.2075 6.22731 27.6609 6.25982 27.6609 6.3086C27.6609 6.50225 25.3644 15.0752 25.2031 15.4962C24.9759 16.0784 24.3286 16.5801 23.827 16.5801C23.5839 16.5801 23.2134 16.3695 22.9054 16.0461C22.4687 15.6093 22.2906 15.1726 21.7734 13.184Z" fill="black"/>
</svg>
