<svg width="24" height="22" viewBox="0 0 24 22" fill="none" xmlns="http://www.w3.org/2000/svg">
<path d="M11.9419 21.9998L16.3423 8.46436H7.54785L11.9419 21.9998Z" fill="black"/>
<path d="M1.38466 8.46436L0.044644 12.5766C-0.0766164 12.95 0.054336 13.3622 0.374395 13.5949L11.9422 21.9997L1.38466 8.46436Z" fill="#767676"/>
<path d="M1.38477 8.46454H7.54825L4.89566 0.31279C4.75989 -0.104263 4.16824 -0.104263 4.02759 0.31279L1.38477 8.46454Z" fill="black"/>
<path d="M22.5063 8.46436L23.8415 12.5766C23.9627 12.95 23.8318 13.3622 23.5117 13.5949L11.9424 21.9998L22.5063 8.46436Z" fill="#767676"/>
<path d="M22.5063 8.46454H16.3428L18.9905 0.31279C19.1262 -0.104263 19.7179 -0.104263 19.8585 0.31279L22.5063 8.46454Z" fill="black"/>
<path d="M11.9424 21.9998L16.3428 8.46436H22.5063L11.9424 21.9998Z" fill="#3B3B3B"/>
<path d="M11.9423 21.9998L1.38477 8.46436H7.54825L11.9423 21.9998Z" fill="#3B3B3B"/>
</svg>
