<?xml version="1.0" encoding="UTF-8"?>
<svg viewBox="0 0 22 22" width="22" height="22" xmlns="http://www.w3.org/2000/svg">
<path d="m12.676 7.51c-0.276 2.388-0.414 4.086-0.414 5.094 0 2.532 0.162 5.106 0.486 7.722-0.36 0.144-0.744 0.216-1.152 0.216s-0.756-0.138-1.044-0.414-0.432-0.624-0.432-1.044c0-0.72 0.042-1.866 0.126-3.438 0.096-1.572 0.156-2.628 0.18-3.168-0.804 1.776-1.62 2.898-2.448 3.366-0.36 0.204-0.744 0.306-1.152 0.306-0.912 0-1.614-0.336-2.106-1.008-0.48-0.672-0.72-1.512-0.72-2.52 0-1.56 0.432-2.916 1.296-4.068s2.022-1.728 3.474-1.728 2.754 0.228 3.906 0.684zm-2.16 1.134c-0.636-0.192-1.176-0.288-1.62-0.288-0.9 0-1.584 0.192-2.052 0.576-0.42 0.96-0.63 2.058-0.63 3.294 0 0.552 0.078 1.08 0.234 1.584 0.156 0.492 0.414 0.738 0.774 0.738 0.42 0 0.972-0.618 1.656-1.854s1.23-2.586 1.638-4.05zm4.5488-4.356c0.384-0.192 0.774-0.288 1.17-0.288s0.714 0.126 0.954 0.378c0.252 0.252 0.378 0.624 0.378 1.116s-0.03 1.05-0.09 1.674c0.9 0 1.758-0.126 2.574-0.378 0.144 0.24 0.216 0.522 0.216 0.846 0 0.312-0.144 0.57-0.432 0.774-0.276 0.192-0.558 0.288-0.846 0.288s-0.612-0.036-0.972-0.108-0.594-0.114-0.702-0.126c-0.012 0.108-0.048 0.324-0.108 0.648-0.048 0.324-0.09 0.606-0.126 0.846-0.096 0.66-0.144 1.368-0.144 2.124 0 1.644 0.534 2.466 1.602 2.466 0.396 0 0.852-0.138 1.368-0.414 0.156 0.228 0.234 0.522 0.234 0.882s-0.198 0.642-0.594 0.846c-0.384 0.192-0.846 0.288-1.386 0.288-2.112 0-3.168-1.2-3.168-3.6 0-0.348 0.048-0.978 0.144-1.89 0.108-0.912 0.162-1.65 0.162-2.214-0.576 0.036-1.038 0.138-1.386 0.306-0.144-0.216-0.216-0.462-0.216-0.738 0-0.288 0.102-0.522 0.306-0.702 0.204-0.192 0.456-0.288 0.756-0.288s0.498 6e-3 0.594 0.018c0.012-0.096 0.018-0.222 0.018-0.378 0-0.9-0.102-1.692-0.306-2.376z"/>
</svg>
